<mxfile host="app.diagrams.net" agent="Mozilla/5.0 (Windows NT 10.0; Win64; x64; rv:138.0) Gecko/20100101 Firefox/138.0" version="26.2.14">
  <diagram name="Page-1" id="0783ab3e-0a74-02c8-0abd-f7b4e66b4bec">
    <mxGraphModel grid="1" page="1" gridSize="10" guides="1" tooltips="1" connect="1" arrows="1" fold="1" pageScale="1" pageWidth="850" pageHeight="1100" background="none" math="0" shadow="0">
      <root>
        <mxCell id="0" />
        <mxCell id="1" parent="0" />
        <mxCell id="14E7IoNqwPS8QeaToOx5-82" value="" style="ellipse;html=1;shape=startState;fillColor=#000000;strokeColor=#FF0000;fixDash=0;editable=1;movable=1;resizable=1;rotatable=1;deletable=1;locked=0;connectable=1;metaEdit=0;" vertex="1" parent="1">
          <mxGeometry x="410" width="30" height="30" as="geometry" />
        </mxCell>
        <mxCell id="14E7IoNqwPS8QeaToOx5-83" value="" style="edgeStyle=orthogonalEdgeStyle;html=1;verticalAlign=bottom;endArrow=open;endSize=8;strokeColor=#000000;rounded=0;entryX=0.5;entryY=0;entryDx=0;entryDy=0;fixDash=0;editable=1;movable=1;resizable=1;rotatable=1;deletable=1;locked=0;connectable=1;metaEdit=0;" edge="1" parent="1" source="14E7IoNqwPS8QeaToOx5-82" target="14E7IoNqwPS8QeaToOx5-84">
          <mxGeometry relative="1" as="geometry">
            <mxPoint x="425" y="210" as="targetPoint" />
          </mxGeometry>
        </mxCell>
        <mxCell id="14E7IoNqwPS8QeaToOx5-84" value="&lt;div&gt;Welcome Screen&lt;/div&gt;" style="rounded=1;whiteSpace=wrap;html=1;arcSize=40;fillColor=#dae8fc;strokeColor=#6c8ebf;fixDash=0;editable=1;movable=1;resizable=1;rotatable=1;deletable=1;locked=0;connectable=1;metaEdit=0;" vertex="1" parent="1">
          <mxGeometry x="365" y="70" width="120" height="40" as="geometry" />
        </mxCell>
        <mxCell id="14E7IoNqwPS8QeaToOx5-88" value="&lt;div&gt;Valid&lt;/div&gt;&lt;div&gt;Credentials&lt;/div&gt;" style="rhombus;whiteSpace=wrap;html=1;fillColor=#ffe6cc;strokeColor=#d79b00;fixDash=0;editable=1;movable=1;resizable=1;rotatable=1;deletable=1;locked=0;connectable=1;metaEdit=0;" vertex="1" parent="1">
          <mxGeometry x="377.5" y="320" width="95" height="80" as="geometry" />
        </mxCell>
        <mxCell id="14E7IoNqwPS8QeaToOx5-89" value="" style="edgeStyle=orthogonalEdgeStyle;html=1;align=left;verticalAlign=bottom;endArrow=open;endSize=8;strokeColor=#000000;rounded=0;entryX=1;entryY=0.5;entryDx=0;entryDy=0;fixDash=0;editable=1;movable=1;resizable=1;rotatable=1;deletable=1;locked=0;connectable=1;metaEdit=0;" edge="1" parent="1" source="14E7IoNqwPS8QeaToOx5-88" target="14E7IoNqwPS8QeaToOx5-148">
          <mxGeometry x="-1" relative="1" as="geometry">
            <mxPoint x="520" y="220" as="targetPoint" />
            <Array as="points">
              <mxPoint x="820" y="360" />
              <mxPoint x="820" y="864" />
            </Array>
            <mxPoint as="offset" />
          </mxGeometry>
        </mxCell>
        <mxCell id="14E7IoNqwPS8QeaToOx5-197" value="No" style="edgeLabel;html=1;align=center;verticalAlign=middle;resizable=1;points=[];fixDash=0;editable=1;movable=1;rotatable=1;deletable=1;locked=0;connectable=1;metaEdit=0;" connectable="0" vertex="1" parent="14E7IoNqwPS8QeaToOx5-89">
          <mxGeometry x="-0.9623" y="1" relative="1" as="geometry">
            <mxPoint x="1" y="-9" as="offset" />
          </mxGeometry>
        </mxCell>
        <mxCell id="14E7IoNqwPS8QeaToOx5-90" value="" style="edgeStyle=orthogonalEdgeStyle;html=1;align=left;verticalAlign=top;endArrow=open;endSize=8;strokeColor=#000000;rounded=0;exitX=0.5;exitY=1;exitDx=0;exitDy=0;fixDash=0;editable=1;movable=1;resizable=1;rotatable=1;deletable=1;locked=0;connectable=1;metaEdit=0;" edge="1" parent="1" source="14E7IoNqwPS8QeaToOx5-88">
          <mxGeometry x="-1" relative="1" as="geometry">
            <mxPoint x="424.5" y="440" as="targetPoint" />
          </mxGeometry>
        </mxCell>
        <mxCell id="14E7IoNqwPS8QeaToOx5-196" value="Yes" style="edgeLabel;html=1;align=center;verticalAlign=middle;resizable=1;points=[];fixDash=0;editable=1;movable=1;rotatable=1;deletable=1;locked=0;connectable=1;metaEdit=0;" connectable="0" vertex="1" parent="14E7IoNqwPS8QeaToOx5-90">
          <mxGeometry x="-0.0918" relative="1" as="geometry">
            <mxPoint x="15" as="offset" />
          </mxGeometry>
        </mxCell>
        <mxCell id="14E7IoNqwPS8QeaToOx5-95" value="Show Dashboard" style="rounded=1;whiteSpace=wrap;html=1;arcSize=40;fillColor=#dae8fc;strokeColor=#6c8ebf;fixDash=0;editable=1;movable=1;resizable=1;rotatable=1;deletable=1;locked=0;connectable=1;metaEdit=0;" vertex="1" parent="1">
          <mxGeometry x="365" y="440" width="120" height="40" as="geometry" />
        </mxCell>
        <mxCell id="14E7IoNqwPS8QeaToOx5-96" value="" style="edgeStyle=orthogonalEdgeStyle;html=1;verticalAlign=bottom;endArrow=open;endSize=8;strokeColor=#000000;rounded=0;entryX=0.5;entryY=0;entryDx=0;entryDy=0;fixDash=0;editable=1;movable=1;resizable=1;rotatable=1;deletable=1;locked=0;connectable=1;metaEdit=0;" edge="1" parent="1" source="14E7IoNqwPS8QeaToOx5-95">
          <mxGeometry relative="1" as="geometry">
            <mxPoint x="424.5" y="519.9999999999999" as="targetPoint" />
          </mxGeometry>
        </mxCell>
        <mxCell id="14E7IoNqwPS8QeaToOx5-97" value="Login/Register" style="rounded=1;whiteSpace=wrap;html=1;arcSize=40;fillColor=#dae8fc;strokeColor=#6c8ebf;fixDash=0;editable=1;movable=1;resizable=1;rotatable=1;deletable=1;locked=0;connectable=1;metaEdit=0;" vertex="1" parent="1">
          <mxGeometry x="365" y="240" width="120" height="40" as="geometry" />
        </mxCell>
        <mxCell id="14E7IoNqwPS8QeaToOx5-98" value="" style="edgeStyle=orthogonalEdgeStyle;html=1;verticalAlign=bottom;endArrow=open;endSize=8;strokeColor=#000000;rounded=0;entryX=0.5;entryY=0;entryDx=0;entryDy=0;fixDash=0;editable=1;movable=1;resizable=1;rotatable=1;deletable=1;locked=0;connectable=1;metaEdit=0;" edge="1" parent="1" source="14E7IoNqwPS8QeaToOx5-97" target="14E7IoNqwPS8QeaToOx5-88">
          <mxGeometry relative="1" as="geometry">
            <mxPoint x="470" y="410" as="targetPoint" />
          </mxGeometry>
        </mxCell>
        <mxCell id="14E7IoNqwPS8QeaToOx5-105" value="&lt;div&gt;Manage&lt;/div&gt;&lt;div&gt;Budgets&lt;/div&gt;" style="rounded=1;whiteSpace=wrap;html=1;arcSize=40;fontColor=#000000;fillColor=none;strokeColor=none;fontStyle=1;fixDash=0;editable=1;movable=1;resizable=1;rotatable=1;deletable=1;locked=0;connectable=1;metaEdit=0;" vertex="1" parent="1">
          <mxGeometry x="-63" y="729" width="120" height="40" as="geometry" />
        </mxCell>
        <mxCell id="14E7IoNqwPS8QeaToOx5-106" value="" style="edgeStyle=orthogonalEdgeStyle;html=1;verticalAlign=bottom;endArrow=open;endSize=8;strokeColor=#000000;rounded=0;entryX=0.5;entryY=0;entryDx=0;entryDy=0;fixDash=0;editable=1;movable=1;resizable=1;rotatable=1;deletable=1;locked=0;connectable=1;metaEdit=0;" edge="1" parent="1" source="14E7IoNqwPS8QeaToOx5-105" target="14E7IoNqwPS8QeaToOx5-135">
          <mxGeometry relative="1" as="geometry">
            <mxPoint x="-3" y="829" as="targetPoint" />
          </mxGeometry>
        </mxCell>
        <mxCell id="14E7IoNqwPS8QeaToOx5-108" value="&lt;div&gt;View All&lt;/div&gt;&lt;div&gt;Budgets&lt;/div&gt;" style="rounded=1;whiteSpace=wrap;html=1;arcSize=40;fontColor=#000000;fillColor=none;strokeColor=none;fontStyle=1;fixDash=0;editable=1;movable=1;resizable=1;rotatable=1;deletable=1;locked=0;connectable=1;metaEdit=0;" vertex="1" parent="1">
          <mxGeometry x="162.5" y="749" width="120" height="40" as="geometry" />
        </mxCell>
        <mxCell id="14E7IoNqwPS8QeaToOx5-109" value="" style="edgeStyle=orthogonalEdgeStyle;html=1;verticalAlign=bottom;endArrow=open;endSize=8;strokeColor=#000000;rounded=0;fixDash=0;editable=1;movable=1;resizable=1;rotatable=1;deletable=1;locked=0;connectable=1;metaEdit=0;" edge="1" parent="1" source="14E7IoNqwPS8QeaToOx5-108">
          <mxGeometry relative="1" as="geometry">
            <mxPoint x="222.5" y="849" as="targetPoint" />
          </mxGeometry>
        </mxCell>
        <mxCell id="14E7IoNqwPS8QeaToOx5-110" value="&lt;div&gt;Undo Last&lt;/div&gt;&lt;div&gt;Action&lt;/div&gt;" style="rounded=1;whiteSpace=wrap;html=1;arcSize=40;fontColor=#000000;fillColor=none;strokeColor=none;fontStyle=1;fixDash=0;editable=1;movable=1;resizable=1;rotatable=1;deletable=1;locked=0;connectable=1;metaEdit=0;" vertex="1" parent="1">
          <mxGeometry x="297.5" y="749" width="120" height="40" as="geometry" />
        </mxCell>
        <mxCell id="14E7IoNqwPS8QeaToOx5-111" value="" style="edgeStyle=orthogonalEdgeStyle;html=1;verticalAlign=bottom;endArrow=open;endSize=8;strokeColor=#000000;rounded=0;fixDash=0;editable=1;movable=1;resizable=1;rotatable=1;deletable=1;locked=0;connectable=1;metaEdit=0;" edge="1" parent="1" source="14E7IoNqwPS8QeaToOx5-110">
          <mxGeometry relative="1" as="geometry">
            <mxPoint x="357.5" y="849" as="targetPoint" />
          </mxGeometry>
        </mxCell>
        <mxCell id="14E7IoNqwPS8QeaToOx5-112" value="&lt;div&gt;View Recent&lt;/div&gt;&lt;div&gt;Actions&lt;/div&gt;" style="rounded=1;whiteSpace=wrap;html=1;arcSize=40;fontColor=#000000;fillColor=none;strokeColor=none;fontStyle=1;fixDash=0;editable=1;movable=1;resizable=1;rotatable=1;deletable=1;locked=0;connectable=1;metaEdit=0;" vertex="1" parent="1">
          <mxGeometry x="430" y="749" width="120" height="40" as="geometry" />
        </mxCell>
        <mxCell id="14E7IoNqwPS8QeaToOx5-113" value="" style="edgeStyle=orthogonalEdgeStyle;html=1;verticalAlign=bottom;endArrow=open;endSize=8;strokeColor=#000000;rounded=0;fixDash=0;editable=1;movable=1;resizable=1;rotatable=1;deletable=1;locked=0;connectable=1;metaEdit=0;" edge="1" parent="1" source="14E7IoNqwPS8QeaToOx5-112">
          <mxGeometry relative="1" as="geometry">
            <mxPoint x="490" y="849" as="targetPoint" />
          </mxGeometry>
        </mxCell>
        <mxCell id="14E7IoNqwPS8QeaToOx5-114" value="&lt;div&gt;Delete&lt;/div&gt;&lt;div&gt;Account&lt;/div&gt;" style="rounded=1;whiteSpace=wrap;html=1;arcSize=40;fontColor=#000000;fillColor=none;strokeColor=none;fontStyle=1;fixDash=0;editable=1;movable=1;resizable=1;rotatable=1;deletable=1;locked=0;connectable=1;metaEdit=0;" vertex="1" parent="1">
          <mxGeometry x="567.5" y="749" width="120" height="40" as="geometry" />
        </mxCell>
        <mxCell id="14E7IoNqwPS8QeaToOx5-115" value="" style="edgeStyle=orthogonalEdgeStyle;html=1;verticalAlign=bottom;endArrow=open;endSize=8;strokeColor=#000000;rounded=0;fixDash=0;editable=1;movable=1;resizable=1;rotatable=1;deletable=1;locked=0;connectable=1;metaEdit=0;" edge="1" parent="1" source="14E7IoNqwPS8QeaToOx5-114">
          <mxGeometry relative="1" as="geometry">
            <mxPoint x="627.5" y="849" as="targetPoint" />
          </mxGeometry>
        </mxCell>
        <mxCell id="14E7IoNqwPS8QeaToOx5-209" value="" style="edgeStyle=orthogonalEdgeStyle;rounded=0;orthogonalLoop=1;jettySize=auto;html=1;fixDash=0;editable=1;movable=1;resizable=1;rotatable=1;deletable=1;locked=0;connectable=1;metaEdit=0;" edge="1" parent="1" source="14E7IoNqwPS8QeaToOx5-116" target="14E7IoNqwPS8QeaToOx5-148">
          <mxGeometry relative="1" as="geometry" />
        </mxCell>
        <mxCell id="14E7IoNqwPS8QeaToOx5-116" value="Logout" style="rounded=1;whiteSpace=wrap;html=1;arcSize=40;fontColor=#000000;fillColor=none;strokeColor=none;fontStyle=1;fixDash=0;editable=1;movable=1;resizable=1;rotatable=1;deletable=1;locked=0;connectable=1;metaEdit=0;" vertex="1" parent="1">
          <mxGeometry x="702.5" y="749" width="120" height="40" as="geometry" />
        </mxCell>
        <mxCell id="14E7IoNqwPS8QeaToOx5-128" style="edgeStyle=orthogonalEdgeStyle;rounded=0;orthogonalLoop=1;jettySize=auto;html=1;exitX=0.5;exitY=1;exitDx=0;exitDy=0;entryX=0.5;entryY=0;entryDx=0;entryDy=0;strokeColor=#000000;startArrow=none;startFill=0;endArrow=none;fixDash=0;editable=1;movable=1;resizable=1;rotatable=1;deletable=1;locked=0;connectable=1;metaEdit=0;" edge="1" parent="1" target="14E7IoNqwPS8QeaToOx5-110">
          <mxGeometry relative="1" as="geometry">
            <mxPoint x="425" y="709" as="sourcePoint" />
          </mxGeometry>
        </mxCell>
        <mxCell id="14E7IoNqwPS8QeaToOx5-129" style="edgeStyle=orthogonalEdgeStyle;rounded=0;orthogonalLoop=1;jettySize=auto;html=1;exitX=0.5;exitY=1;exitDx=0;exitDy=0;entryX=0.5;entryY=0;entryDx=0;entryDy=0;strokeColor=#000000;endArrow=none;startFill=0;fixDash=0;editable=1;movable=1;resizable=1;rotatable=1;deletable=1;locked=0;connectable=1;metaEdit=0;" edge="1" parent="1" target="14E7IoNqwPS8QeaToOx5-108">
          <mxGeometry relative="1" as="geometry">
            <mxPoint x="425" y="709" as="sourcePoint" />
          </mxGeometry>
        </mxCell>
        <mxCell id="14E7IoNqwPS8QeaToOx5-130" style="edgeStyle=orthogonalEdgeStyle;rounded=0;orthogonalLoop=1;jettySize=auto;html=1;exitX=0.5;exitY=1;exitDx=0;exitDy=0;entryX=0.5;entryY=0;entryDx=0;entryDy=0;strokeColor=#000000;endArrow=none;startFill=0;fixDash=0;editable=1;movable=1;resizable=1;rotatable=1;deletable=1;locked=0;connectable=1;metaEdit=0;" edge="1" parent="1" target="14E7IoNqwPS8QeaToOx5-105">
          <mxGeometry relative="1" as="geometry">
            <mxPoint x="425" y="709" as="sourcePoint" />
          </mxGeometry>
        </mxCell>
        <mxCell id="14E7IoNqwPS8QeaToOx5-131" style="edgeStyle=orthogonalEdgeStyle;rounded=0;orthogonalLoop=1;jettySize=auto;html=1;exitX=0.5;exitY=1;exitDx=0;exitDy=0;strokeColor=#000000;endArrow=none;startFill=0;fixDash=0;editable=1;movable=1;resizable=1;rotatable=1;deletable=1;locked=0;connectable=1;metaEdit=0;" edge="1" parent="1" target="14E7IoNqwPS8QeaToOx5-112">
          <mxGeometry relative="1" as="geometry">
            <mxPoint x="425" y="709" as="sourcePoint" />
          </mxGeometry>
        </mxCell>
        <mxCell id="14E7IoNqwPS8QeaToOx5-132" style="edgeStyle=orthogonalEdgeStyle;rounded=0;orthogonalLoop=1;jettySize=auto;html=1;exitX=0.5;exitY=1;exitDx=0;exitDy=0;strokeColor=#000000;endArrow=none;startFill=0;fixDash=0;editable=1;movable=1;resizable=1;rotatable=1;deletable=1;locked=0;connectable=1;metaEdit=0;" edge="1" parent="1" target="14E7IoNqwPS8QeaToOx5-114">
          <mxGeometry relative="1" as="geometry">
            <mxPoint x="425" y="709" as="sourcePoint" />
          </mxGeometry>
        </mxCell>
        <mxCell id="14E7IoNqwPS8QeaToOx5-133" style="edgeStyle=orthogonalEdgeStyle;rounded=0;orthogonalLoop=1;jettySize=auto;html=1;exitX=0.5;exitY=1;exitDx=0;exitDy=0;entryX=0.5;entryY=0;entryDx=0;entryDy=0;strokeColor=#000000;endArrow=none;startFill=0;fixDash=0;editable=1;movable=1;resizable=1;rotatable=1;deletable=1;locked=0;connectable=1;metaEdit=0;" edge="1" parent="1" target="14E7IoNqwPS8QeaToOx5-116">
          <mxGeometry relative="1" as="geometry">
            <mxPoint x="425" y="709" as="sourcePoint" />
          </mxGeometry>
        </mxCell>
        <mxCell id="14E7IoNqwPS8QeaToOx5-152" style="edgeStyle=orthogonalEdgeStyle;rounded=0;orthogonalLoop=1;jettySize=auto;html=1;exitX=0.5;exitY=1;exitDx=0;exitDy=0;entryX=0.5;entryY=0;entryDx=0;entryDy=0;strokeColor=#000000;fixDash=0;editable=1;movable=1;resizable=1;rotatable=1;deletable=1;locked=0;connectable=1;metaEdit=0;" edge="1" parent="1" source="14E7IoNqwPS8QeaToOx5-135" target="14E7IoNqwPS8QeaToOx5-151">
          <mxGeometry relative="1" as="geometry" />
        </mxCell>
        <mxCell id="14E7IoNqwPS8QeaToOx5-135" value="&lt;div&gt;Budget&lt;/div&gt;&lt;div&gt;Management&lt;/div&gt;" style="rounded=1;whiteSpace=wrap;html=1;arcSize=40;fillColor=#d5e8d4;strokeColor=#82b366;fixDash=0;editable=1;movable=1;resizable=1;rotatable=1;deletable=1;locked=0;connectable=1;metaEdit=0;" vertex="1" parent="1">
          <mxGeometry x="-63" y="799" width="120" height="40" as="geometry" />
        </mxCell>
        <mxCell id="14E7IoNqwPS8QeaToOx5-136" value="&lt;div&gt;View All&lt;/div&gt;&lt;div&gt;Expenses&lt;/div&gt;" style="rounded=1;whiteSpace=wrap;html=1;arcSize=40;fillColor=#d5e8d4;strokeColor=#82b366;fixDash=0;editable=1;movable=1;resizable=1;rotatable=1;deletable=1;locked=0;connectable=1;metaEdit=0;" vertex="1" parent="1">
          <mxGeometry x="162.5" y="849" width="120" height="40" as="geometry" />
        </mxCell>
        <mxCell id="14E7IoNqwPS8QeaToOx5-149" style="edgeStyle=orthogonalEdgeStyle;rounded=0;orthogonalLoop=1;jettySize=auto;html=1;exitX=0.5;exitY=1;exitDx=0;exitDy=0;entryX=0.5;entryY=0;entryDx=0;entryDy=0;strokeColor=#000000;fixDash=0;editable=1;movable=1;resizable=1;rotatable=1;deletable=1;locked=0;connectable=1;metaEdit=0;" edge="1" parent="1" source="14E7IoNqwPS8QeaToOx5-137" target="14E7IoNqwPS8QeaToOx5-144">
          <mxGeometry relative="1" as="geometry" />
        </mxCell>
        <mxCell id="14E7IoNqwPS8QeaToOx5-198" value="Yes" style="edgeLabel;html=1;align=center;verticalAlign=middle;resizable=1;points=[];fixDash=0;editable=1;movable=1;rotatable=1;deletable=1;locked=0;connectable=1;metaEdit=0;" connectable="0" vertex="1" parent="14E7IoNqwPS8QeaToOx5-149">
          <mxGeometry x="-0.1185" y="1" relative="1" as="geometry">
            <mxPoint x="12" y="-2" as="offset" />
          </mxGeometry>
        </mxCell>
        <mxCell id="14E7IoNqwPS8QeaToOx5-202" style="edgeStyle=orthogonalEdgeStyle;rounded=0;orthogonalLoop=1;jettySize=auto;html=1;exitX=1;exitY=0.5;exitDx=0;exitDy=0;entryX=1;entryY=0.5;entryDx=0;entryDy=0;strokeColor=#000000;fixDash=0;editable=1;movable=1;resizable=1;rotatable=1;deletable=1;locked=0;connectable=1;metaEdit=0;" edge="1" parent="1" source="14E7IoNqwPS8QeaToOx5-137" target="14E7IoNqwPS8QeaToOx5-199">
          <mxGeometry relative="1" as="geometry" />
        </mxCell>
        <mxCell id="14E7IoNqwPS8QeaToOx5-203" value="No" style="edgeLabel;html=1;align=center;verticalAlign=middle;resizable=1;points=[];fixDash=0;editable=1;movable=1;rotatable=1;deletable=1;locked=0;connectable=1;metaEdit=0;" connectable="0" vertex="1" parent="14E7IoNqwPS8QeaToOx5-202">
          <mxGeometry x="-0.8434" relative="1" as="geometry">
            <mxPoint y="-9" as="offset" />
          </mxGeometry>
        </mxCell>
        <mxCell id="14E7IoNqwPS8QeaToOx5-137" value="&lt;div&gt;Confirm&lt;/div&gt;" style="rhombus;whiteSpace=wrap;html=1;fillColor=#ffe6cc;strokeColor=#d79b00;fixDash=0;editable=1;movable=1;resizable=1;rotatable=1;deletable=1;locked=0;connectable=1;metaEdit=0;" vertex="1" parent="1">
          <mxGeometry x="580" y="849" width="95" height="40" as="geometry" />
        </mxCell>
        <mxCell id="14E7IoNqwPS8QeaToOx5-138" value="&lt;div&gt;Dashboard&lt;/div&gt;&lt;div&gt;Selection&lt;/div&gt;" style="rhombus;whiteSpace=wrap;html=1;fillColor=#ffe6cc;strokeColor=#d79b00;fixDash=0;editable=1;movable=1;resizable=1;rotatable=1;deletable=1;locked=0;connectable=1;metaEdit=0;" vertex="1" parent="1">
          <mxGeometry x="378" y="629" width="95" height="80" as="geometry" />
        </mxCell>
        <mxCell id="14E7IoNqwPS8QeaToOx5-140" value="&lt;div&gt;Restored Deleted&lt;/div&gt;&lt;div&gt;Item&lt;/div&gt;" style="rounded=1;whiteSpace=wrap;html=1;arcSize=40;fillColor=#d5e8d4;strokeColor=#82b366;fixDash=0;editable=1;movable=1;resizable=1;rotatable=1;deletable=1;locked=0;connectable=1;metaEdit=0;" vertex="1" parent="1">
          <mxGeometry x="297.5" y="849" width="120" height="40" as="geometry" />
        </mxCell>
        <mxCell id="14E7IoNqwPS8QeaToOx5-150" style="edgeStyle=orthogonalEdgeStyle;rounded=0;orthogonalLoop=1;jettySize=auto;html=1;exitX=0.5;exitY=1;exitDx=0;exitDy=0;entryX=0.5;entryY=0;entryDx=0;entryDy=0;strokeColor=#000000;fixDash=0;editable=1;movable=1;resizable=1;rotatable=1;deletable=1;locked=0;connectable=1;metaEdit=0;" edge="1" parent="1" source="14E7IoNqwPS8QeaToOx5-141" target="14E7IoNqwPS8QeaToOx5-143">
          <mxGeometry relative="1" as="geometry" />
        </mxCell>
        <mxCell id="14E7IoNqwPS8QeaToOx5-141" value="&lt;div&gt;Display Recent&lt;/div&gt;&lt;div&gt;Actions List&lt;/div&gt;" style="rounded=1;whiteSpace=wrap;html=1;arcSize=40;fillColor=#d5e8d4;strokeColor=#82b366;fixDash=0;editable=1;movable=1;resizable=1;rotatable=1;deletable=1;locked=0;connectable=1;metaEdit=0;" vertex="1" parent="1">
          <mxGeometry x="430" y="849" width="120" height="40" as="geometry" />
        </mxCell>
        <mxCell id="14E7IoNqwPS8QeaToOx5-142" value="" style="edgeStyle=orthogonalEdgeStyle;html=1;verticalAlign=bottom;endArrow=open;endSize=8;strokeColor=#000000;rounded=0;fixDash=0;editable=1;movable=1;resizable=1;rotatable=1;deletable=1;locked=0;connectable=1;metaEdit=0;" edge="1" parent="1">
          <mxGeometry relative="1" as="geometry">
            <mxPoint x="762.5" y="849" as="targetPoint" />
            <mxPoint x="762" y="789" as="sourcePoint" />
          </mxGeometry>
        </mxCell>
        <mxCell id="14E7IoNqwPS8QeaToOx5-143" value="Back" style="rounded=1;whiteSpace=wrap;html=1;arcSize=40;fillColor=#d5e8d4;strokeColor=#82b366;fixDash=0;editable=1;movable=1;resizable=1;rotatable=1;deletable=1;locked=0;connectable=1;metaEdit=0;" vertex="1" parent="1">
          <mxGeometry x="430" y="919" width="120" height="40" as="geometry" />
        </mxCell>
        <mxCell id="14E7IoNqwPS8QeaToOx5-200" style="edgeStyle=orthogonalEdgeStyle;rounded=0;orthogonalLoop=1;jettySize=auto;html=1;exitX=0.5;exitY=1;exitDx=0;exitDy=0;entryX=0.5;entryY=0;entryDx=0;entryDy=0;fixDash=0;editable=1;movable=1;resizable=1;rotatable=1;deletable=1;locked=0;connectable=1;metaEdit=0;" edge="1" parent="1" source="14E7IoNqwPS8QeaToOx5-144" target="14E7IoNqwPS8QeaToOx5-199">
          <mxGeometry relative="1" as="geometry" />
        </mxCell>
        <mxCell id="14E7IoNqwPS8QeaToOx5-144" value="Delete Account" style="rounded=1;whiteSpace=wrap;html=1;arcSize=40;fillColor=#d5e8d4;strokeColor=#82b366;fixDash=0;editable=1;movable=1;resizable=1;rotatable=1;deletable=1;locked=0;connectable=1;metaEdit=0;" vertex="1" parent="1">
          <mxGeometry x="567.5" y="919" width="120" height="40" as="geometry" />
        </mxCell>
        <mxCell id="14E7IoNqwPS8QeaToOx5-148" value="" style="ellipse;html=1;shape=endState;fillColor=#000000;strokeColor=#FF0000;fixDash=0;editable=1;movable=1;resizable=1;rotatable=1;deletable=1;locked=0;connectable=1;metaEdit=0;" vertex="1" parent="1">
          <mxGeometry x="747.5" y="849" width="30" height="30" as="geometry" />
        </mxCell>
        <mxCell id="14E7IoNqwPS8QeaToOx5-156" style="edgeStyle=orthogonalEdgeStyle;rounded=0;orthogonalLoop=1;jettySize=auto;html=1;exitX=0.5;exitY=1;exitDx=0;exitDy=0;strokeColor=#000000;fixDash=0;editable=1;movable=1;resizable=1;rotatable=1;deletable=1;locked=0;connectable=1;metaEdit=0;" edge="1" parent="1" source="14E7IoNqwPS8QeaToOx5-151" target="14E7IoNqwPS8QeaToOx5-153">
          <mxGeometry relative="1" as="geometry" />
        </mxCell>
        <mxCell id="14E7IoNqwPS8QeaToOx5-157" style="edgeStyle=orthogonalEdgeStyle;rounded=0;orthogonalLoop=1;jettySize=auto;html=1;exitX=0.5;exitY=1;exitDx=0;exitDy=0;entryX=0.5;entryY=0;entryDx=0;entryDy=0;strokeColor=#000000;fixDash=0;editable=1;movable=1;resizable=1;rotatable=1;deletable=1;locked=0;connectable=1;metaEdit=0;" edge="1" parent="1" source="14E7IoNqwPS8QeaToOx5-151" target="14E7IoNqwPS8QeaToOx5-154">
          <mxGeometry relative="1" as="geometry" />
        </mxCell>
        <mxCell id="14E7IoNqwPS8QeaToOx5-158" style="edgeStyle=orthogonalEdgeStyle;rounded=0;orthogonalLoop=1;jettySize=auto;html=1;exitX=0.5;exitY=1;exitDx=0;exitDy=0;entryX=0.5;entryY=0;entryDx=0;entryDy=0;strokeColor=#000000;fixDash=0;editable=1;movable=1;resizable=1;rotatable=1;deletable=1;locked=0;connectable=1;metaEdit=0;" edge="1" parent="1" source="14E7IoNqwPS8QeaToOx5-151" target="14E7IoNqwPS8QeaToOx5-155">
          <mxGeometry relative="1" as="geometry" />
        </mxCell>
        <mxCell id="14E7IoNqwPS8QeaToOx5-151" value="&lt;div&gt;Budget&lt;/div&gt;&lt;div&gt;Action&lt;/div&gt;" style="rhombus;whiteSpace=wrap;html=1;fillColor=#ffe6cc;strokeColor=#d79b00;fixDash=0;editable=1;movable=1;resizable=1;rotatable=1;deletable=1;locked=0;connectable=1;metaEdit=0;" vertex="1" parent="1">
          <mxGeometry x="-50.5" y="879" width="95" height="50" as="geometry" />
        </mxCell>
        <mxCell id="14E7IoNqwPS8QeaToOx5-153" value="&lt;div&gt;Create&lt;/div&gt;&lt;div&gt;Action&lt;/div&gt;" style="rounded=1;whiteSpace=wrap;html=1;arcSize=40;fillColor=#d5e8d4;strokeColor=#82b366;fixDash=0;editable=1;movable=1;resizable=1;rotatable=1;deletable=1;locked=0;connectable=1;metaEdit=0;" vertex="1" parent="1">
          <mxGeometry x="-203" y="969" width="120" height="40" as="geometry" />
        </mxCell>
        <mxCell id="14E7IoNqwPS8QeaToOx5-160" style="edgeStyle=orthogonalEdgeStyle;rounded=0;orthogonalLoop=1;jettySize=auto;html=1;exitX=0.5;exitY=1;exitDx=0;exitDy=0;strokeColor=#000000;fixDash=0;editable=1;movable=1;resizable=1;rotatable=1;deletable=1;locked=0;connectable=1;metaEdit=0;" edge="1" parent="1" source="14E7IoNqwPS8QeaToOx5-154" target="14E7IoNqwPS8QeaToOx5-159">
          <mxGeometry relative="1" as="geometry" />
        </mxCell>
        <mxCell id="14E7IoNqwPS8QeaToOx5-154" value="&lt;div&gt;View/Edit&lt;/div&gt;&lt;div&gt;Action&lt;/div&gt;" style="rounded=1;whiteSpace=wrap;html=1;arcSize=40;fillColor=#d5e8d4;strokeColor=#82b366;fixDash=0;editable=1;movable=1;resizable=1;rotatable=1;deletable=1;locked=0;connectable=1;metaEdit=0;" vertex="1" parent="1">
          <mxGeometry x="-63" y="969" width="120" height="40" as="geometry" />
        </mxCell>
        <mxCell id="14E7IoNqwPS8QeaToOx5-155" value="Back" style="rounded=1;whiteSpace=wrap;html=1;arcSize=40;fillColor=#d5e8d4;strokeColor=#82b366;fixDash=0;editable=1;movable=1;resizable=1;rotatable=1;deletable=1;locked=0;connectable=1;metaEdit=0;" vertex="1" parent="1">
          <mxGeometry x="77" y="969" width="120" height="40" as="geometry" />
        </mxCell>
        <mxCell id="14E7IoNqwPS8QeaToOx5-162" style="edgeStyle=orthogonalEdgeStyle;rounded=0;orthogonalLoop=1;jettySize=auto;html=1;exitX=0.5;exitY=1;exitDx=0;exitDy=0;strokeColor=#000000;fixDash=0;editable=1;movable=1;resizable=1;rotatable=1;deletable=1;locked=0;connectable=1;metaEdit=0;" edge="1" parent="1" source="14E7IoNqwPS8QeaToOx5-159" target="14E7IoNqwPS8QeaToOx5-161">
          <mxGeometry relative="1" as="geometry" />
        </mxCell>
        <mxCell id="14E7IoNqwPS8QeaToOx5-159" value="&lt;div&gt;Show Budget&lt;/div&gt;&lt;div&gt;Details&lt;/div&gt;" style="rounded=1;whiteSpace=wrap;html=1;arcSize=40;fillColor=#d5e8d4;strokeColor=#82b366;fixDash=0;editable=1;movable=1;resizable=1;rotatable=1;deletable=1;locked=0;connectable=1;metaEdit=0;" vertex="1" parent="1">
          <mxGeometry x="-63" y="1039" width="120" height="40" as="geometry" />
        </mxCell>
        <mxCell id="14E7IoNqwPS8QeaToOx5-161" value="&lt;div&gt;Manage Budget&lt;/div&gt;&lt;div&gt;Expenses&lt;/div&gt;" style="rounded=1;whiteSpace=wrap;html=1;arcSize=40;fillColor=#d5e8d4;strokeColor=#82b366;fixDash=0;editable=1;movable=1;resizable=1;rotatable=1;deletable=1;locked=0;connectable=1;metaEdit=0;" vertex="1" parent="1">
          <mxGeometry x="-63" y="1119" width="120" height="40" as="geometry" />
        </mxCell>
        <mxCell id="14E7IoNqwPS8QeaToOx5-171" value="" style="shape=line;html=1;strokeWidth=6;strokeColor=#10739e;fillColor=#b1ddf0;fixDash=0;editable=1;movable=1;resizable=1;rotatable=1;deletable=1;locked=0;connectable=1;metaEdit=0;" vertex="1" parent="1">
          <mxGeometry x="-163" y="1189" width="310" height="10" as="geometry" />
        </mxCell>
        <mxCell id="14E7IoNqwPS8QeaToOx5-172" value="" style="edgeStyle=orthogonalEdgeStyle;html=1;verticalAlign=bottom;endArrow=open;endSize=8;strokeColor=#000000;rounded=0;entryX=0.5;entryY=0;entryDx=0;entryDy=0;fixDash=0;editable=1;movable=1;resizable=1;rotatable=1;deletable=1;locked=0;connectable=1;metaEdit=0;" edge="1" parent="1" target="14E7IoNqwPS8QeaToOx5-174">
          <mxGeometry relative="1" as="geometry">
            <mxPoint x="-50.5" y="1269" as="targetPoint" />
            <mxPoint x="-3" y="1199" as="sourcePoint" />
          </mxGeometry>
        </mxCell>
        <mxCell id="14E7IoNqwPS8QeaToOx5-173" style="edgeStyle=orthogonalEdgeStyle;rounded=0;orthogonalLoop=1;jettySize=auto;html=1;exitX=0.5;exitY=1;exitDx=0;exitDy=0;entryX=0.967;entryY=0.629;entryDx=0;entryDy=0;entryPerimeter=0;strokeColor=#000000;fixDash=0;editable=1;movable=1;resizable=1;rotatable=1;deletable=1;locked=0;connectable=1;metaEdit=0;" edge="1" parent="1" source="14E7IoNqwPS8QeaToOx5-155" target="14E7IoNqwPS8QeaToOx5-171">
          <mxGeometry relative="1" as="geometry">
            <mxPoint x="137" y="1189" as="targetPoint" />
          </mxGeometry>
        </mxCell>
        <mxCell id="14E7IoNqwPS8QeaToOx5-174" value="Back" style="rounded=1;whiteSpace=wrap;html=1;arcSize=40;fillColor=#d5e8d4;strokeColor=#82b366;fixDash=0;editable=1;movable=1;resizable=1;rotatable=1;deletable=1;locked=0;connectable=1;metaEdit=0;" vertex="1" parent="1">
          <mxGeometry x="-63" y="1229" width="120" height="40" as="geometry" />
        </mxCell>
        <mxCell id="14E7IoNqwPS8QeaToOx5-176" value="" style="shape=line;html=1;strokeWidth=6;strokeColor=#10739e;fillColor=#b1ddf0;fixDash=0;editable=1;movable=1;resizable=1;rotatable=1;deletable=1;locked=0;connectable=1;metaEdit=0;" vertex="1" parent="1">
          <mxGeometry x="-200" y="1299" width="920" height="10" as="geometry" />
        </mxCell>
        <mxCell id="14E7IoNqwPS8QeaToOx5-177" value="" style="edgeStyle=orthogonalEdgeStyle;html=1;verticalAlign=bottom;endArrow=open;endSize=8;strokeColor=#000000;rounded=0;entryX=0;entryY=0.5;entryDx=0;entryDy=0;fixDash=0;editable=1;movable=1;resizable=1;rotatable=1;deletable=1;locked=0;connectable=1;metaEdit=0;" edge="1" parent="1" source="14E7IoNqwPS8QeaToOx5-176" target="14E7IoNqwPS8QeaToOx5-184">
          <mxGeometry relative="1" as="geometry">
            <mxPoint x="-100" y="1379" as="targetPoint" />
            <Array as="points">
              <mxPoint x="260" y="1350" />
              <mxPoint x="-240" y="1350" />
              <mxPoint x="-240" y="540" />
            </Array>
          </mxGeometry>
        </mxCell>
        <mxCell id="14E7IoNqwPS8QeaToOx5-178" style="edgeStyle=orthogonalEdgeStyle;rounded=0;orthogonalLoop=1;jettySize=auto;html=1;exitX=0.5;exitY=1;exitDx=0;exitDy=0;entryX=0.026;entryY=0.663;entryDx=0;entryDy=0;entryPerimeter=0;strokeColor=#000000;fixDash=0;editable=1;movable=1;resizable=1;rotatable=1;deletable=1;locked=0;connectable=1;metaEdit=0;" edge="1" parent="1" source="14E7IoNqwPS8QeaToOx5-174">
          <mxGeometry relative="1" as="geometry">
            <mxPoint x="-4.079999999999927" y="1305.63" as="targetPoint" />
          </mxGeometry>
        </mxCell>
        <mxCell id="14E7IoNqwPS8QeaToOx5-181" style="edgeStyle=orthogonalEdgeStyle;rounded=0;orthogonalLoop=1;jettySize=auto;html=1;exitX=0.5;exitY=1;exitDx=0;exitDy=0;entryX=0.75;entryY=0.5;entryDx=0;entryDy=0;entryPerimeter=0;strokeColor=#000000;fixDash=0;editable=1;movable=1;resizable=1;rotatable=1;deletable=1;locked=0;connectable=1;metaEdit=0;" edge="1" parent="1" source="14E7IoNqwPS8QeaToOx5-143" target="14E7IoNqwPS8QeaToOx5-176">
          <mxGeometry relative="1" as="geometry" />
        </mxCell>
        <mxCell id="14E7IoNqwPS8QeaToOx5-183" style="edgeStyle=orthogonalEdgeStyle;rounded=0;orthogonalLoop=1;jettySize=auto;html=1;exitX=0.5;exitY=1;exitDx=0;exitDy=0;entryX=0.46;entryY=0.621;entryDx=0;entryDy=0;entryPerimeter=0;strokeColor=#000000;fixDash=0;editable=1;movable=1;resizable=1;rotatable=1;deletable=1;locked=0;connectable=1;metaEdit=0;" edge="1" parent="1" source="14E7IoNqwPS8QeaToOx5-136" target="14E7IoNqwPS8QeaToOx5-176">
          <mxGeometry relative="1" as="geometry" />
        </mxCell>
        <mxCell id="14E7IoNqwPS8QeaToOx5-163" style="edgeStyle=orthogonalEdgeStyle;rounded=0;orthogonalLoop=1;jettySize=auto;html=1;exitX=0.5;exitY=1;exitDx=0;exitDy=0;strokeColor=#000000;fixDash=0;editable=1;movable=1;resizable=1;rotatable=1;deletable=1;locked=0;connectable=1;metaEdit=0;" edge="1" parent="1" source="14E7IoNqwPS8QeaToOx5-161">
          <mxGeometry relative="1" as="geometry">
            <mxPoint x="-3" y="1194" as="targetPoint" />
          </mxGeometry>
        </mxCell>
        <mxCell id="14E7IoNqwPS8QeaToOx5-164" style="edgeStyle=orthogonalEdgeStyle;rounded=0;orthogonalLoop=1;jettySize=auto;html=1;exitX=0.5;exitY=1;exitDx=0;exitDy=0;entryX=0.064;entryY=0.651;entryDx=0;entryDy=0;entryPerimeter=0;strokeColor=#000000;fixDash=0;editable=1;movable=1;resizable=1;rotatable=1;deletable=1;locked=0;connectable=1;metaEdit=0;" edge="1" parent="1" source="14E7IoNqwPS8QeaToOx5-153" target="14E7IoNqwPS8QeaToOx5-171">
          <mxGeometry relative="1" as="geometry">
            <mxPoint x="-142.66666666666674" y="1189" as="targetPoint" />
          </mxGeometry>
        </mxCell>
        <mxCell id="14E7IoNqwPS8QeaToOx5-188" style="edgeStyle=orthogonalEdgeStyle;rounded=0;orthogonalLoop=1;jettySize=auto;html=1;exitX=0.5;exitY=1;exitDx=0;exitDy=0;entryX=0.5;entryY=0;entryDx=0;entryDy=0;strokeColor=#000000;fixDash=0;editable=1;movable=1;resizable=1;rotatable=1;deletable=1;locked=0;connectable=1;metaEdit=0;" edge="1" parent="1" source="14E7IoNqwPS8QeaToOx5-184" target="14E7IoNqwPS8QeaToOx5-138">
          <mxGeometry relative="1" as="geometry" />
        </mxCell>
        <mxCell id="14E7IoNqwPS8QeaToOx5-184" value="" style="rhombus;whiteSpace=wrap;html=1;fillColor=#e1d5e7;strokeColor=#9673a6;fixDash=0;editable=1;movable=1;resizable=1;rotatable=1;deletable=1;locked=0;connectable=1;metaEdit=0;" vertex="1" parent="1">
          <mxGeometry x="402" y="520" width="47" height="40" as="geometry" />
        </mxCell>
        <mxCell id="14E7IoNqwPS8QeaToOx5-190" style="edgeStyle=orthogonalEdgeStyle;rounded=0;orthogonalLoop=1;jettySize=auto;html=1;exitX=0.5;exitY=1;exitDx=0;exitDy=0;fixDash=0;editable=1;movable=1;resizable=1;rotatable=1;deletable=1;locked=0;connectable=1;metaEdit=0;" edge="1" parent="1" source="14E7IoNqwPS8QeaToOx5-189" target="14E7IoNqwPS8QeaToOx5-97">
          <mxGeometry relative="1" as="geometry" />
        </mxCell>
        <mxCell id="14E7IoNqwPS8QeaToOx5-193" value="No" style="edgeLabel;html=1;align=center;verticalAlign=middle;resizable=1;points=[];fixDash=0;editable=1;movable=1;rotatable=1;deletable=1;locked=0;connectable=1;metaEdit=0;" connectable="0" vertex="1" parent="14E7IoNqwPS8QeaToOx5-190">
          <mxGeometry x="-0.1919" relative="1" as="geometry">
            <mxPoint x="14" y="-2" as="offset" />
          </mxGeometry>
        </mxCell>
        <mxCell id="14E7IoNqwPS8QeaToOx5-194" style="edgeStyle=orthogonalEdgeStyle;rounded=0;orthogonalLoop=1;jettySize=auto;html=1;exitX=1;exitY=0.5;exitDx=0;exitDy=0;entryX=0.5;entryY=1;entryDx=0;entryDy=0;strokeColor=#000000;fixDash=0;editable=1;movable=1;resizable=1;rotatable=1;deletable=1;locked=0;connectable=1;metaEdit=0;" edge="1" parent="1" source="14E7IoNqwPS8QeaToOx5-189" target="14E7IoNqwPS8QeaToOx5-148">
          <mxGeometry relative="1" as="geometry">
            <Array as="points">
              <mxPoint x="840" y="170" />
              <mxPoint x="840" y="920" />
              <mxPoint x="763" y="920" />
            </Array>
          </mxGeometry>
        </mxCell>
        <mxCell id="14E7IoNqwPS8QeaToOx5-195" value="Yes" style="edgeLabel;html=1;align=center;verticalAlign=middle;resizable=1;points=[];fixDash=0;editable=1;movable=1;rotatable=1;deletable=1;locked=0;connectable=1;metaEdit=0;" connectable="0" vertex="1" parent="14E7IoNqwPS8QeaToOx5-194">
          <mxGeometry x="-0.9741" relative="1" as="geometry">
            <mxPoint x="1" y="-10" as="offset" />
          </mxGeometry>
        </mxCell>
        <mxCell id="14E7IoNqwPS8QeaToOx5-189" value="Exit?" style="rhombus;whiteSpace=wrap;html=1;fillColor=#ffe6cc;strokeColor=#d79b00;fixDash=0;editable=1;movable=1;resizable=1;rotatable=1;deletable=1;locked=0;connectable=1;metaEdit=0;" vertex="1" parent="1">
          <mxGeometry x="378" y="130" width="95" height="80" as="geometry" />
        </mxCell>
        <mxCell id="14E7IoNqwPS8QeaToOx5-191" style="edgeStyle=orthogonalEdgeStyle;rounded=0;orthogonalLoop=1;jettySize=auto;html=1;exitX=0.5;exitY=1;exitDx=0;exitDy=0;entryX=0.502;entryY=-0.052;entryDx=0;entryDy=0;entryPerimeter=0;fixDash=0;editable=1;movable=1;resizable=1;rotatable=1;deletable=1;locked=0;connectable=1;metaEdit=0;" edge="1" parent="1" source="14E7IoNqwPS8QeaToOx5-84" target="14E7IoNqwPS8QeaToOx5-189">
          <mxGeometry relative="1" as="geometry" />
        </mxCell>
        <mxCell id="14E7IoNqwPS8QeaToOx5-199" value="Back" style="rounded=1;whiteSpace=wrap;html=1;arcSize=40;fillColor=#d5e8d4;strokeColor=#82b366;fixDash=0;editable=1;movable=1;resizable=1;rotatable=1;deletable=1;locked=0;connectable=1;metaEdit=0;" vertex="1" parent="1">
          <mxGeometry x="567.5" y="999" width="120" height="40" as="geometry" />
        </mxCell>
        <mxCell id="14E7IoNqwPS8QeaToOx5-201" style="edgeStyle=orthogonalEdgeStyle;rounded=0;orthogonalLoop=1;jettySize=auto;html=1;exitX=0.5;exitY=1;exitDx=0;exitDy=0;entryX=0.899;entryY=0.417;entryDx=0;entryDy=0;entryPerimeter=0;strokeColor=#000000;fixDash=0;editable=1;movable=1;resizable=1;rotatable=1;deletable=1;locked=0;connectable=1;metaEdit=0;" edge="1" parent="1" source="14E7IoNqwPS8QeaToOx5-199" target="14E7IoNqwPS8QeaToOx5-176">
          <mxGeometry relative="1" as="geometry" />
        </mxCell>
      </root>
    </mxGraphModel>
  </diagram>
</mxfile>
